<svg width="100" height="100" fill="none" xmlns="http://www.w3.org/2000/svg"><path fill="#F8C957" d="M0 0h100v100H0z"/><g clip-path="url(#clip0_610_5685)"><path d="M72.5 20h-45c-4.135 0-7.5 3.365-7.5 7.5v20h60v-20c0-4.135-3.365-7.5-7.5-7.5zM70 40H30v-5h40v5zM32.5 80c-5.515 0-10-4.485-10-10s4.485-10 10-10v5c-2.758 0-5 2.243-5 5s2.242 5 5 5 5-2.243 5-5V52.5h5V70c0 5.515-4.485 10-10 10zm35 0c-5.515 0-10-4.485-10-10V52.5h5V70c0 2.757 2.243 5 5 5s5-2.243 5-5-2.243-5-5-5v-5c5.515 0 10 4.485 10 10s-4.485 10-10 10zm-15 0h-5V52.5h5V80z" fill="#F6F6F8"/></g><defs><clipPath id="clip0_610_5685"><path fill="#fff" transform="translate(20 20)" d="M0 0h60v60H0z"/></clipPath></defs></svg>