<svg xmlns="http://www.w3.org/2000/svg" width="500" height="170" viewBox="0 0 132.292 44.979"><g style="line-height:1.25;-inkscape-font-specification:'Nimbus Sans L Italic'"><path d="M5.9 39.643h2.998l.136-.623H6.028l.38-1.768h3.127l.13-.623H5.823l-1.177 5.534h3.97l.129-.623H5.49zm21.037-.319l2.452-2.695h-.865l-1.883 2.163-.949-2.163h-.857l1.267 2.695-2.573 2.839h.873l2.004-2.308 1.017 2.308h.873zm17.728.493h1.731c.478 0 .835-.121 1.176-.395.479-.38.752-.956.752-1.57 0-.805-.47-1.223-1.404-1.223h-2.293l-1.176 5.534h.713zm.13-.622l.417-1.943h1.472c.592 0 .911.258.911.736 0 .273-.083.516-.265.744-.25.319-.577.463-1.063.463zm19.291.585H65.9c.494 0 .767.197.767.568 0 .13-.023.289-.06.456-.183.759-.183.759-.183 1.002 0 .121.008.205.03.357h.858l.038-.175a.542.542 0 01-.16-.402 2.4 2.4 0 01.046-.38c.145-.797.16-.895.16-1.047 0-.342-.099-.494-.456-.729.296-.167.418-.25.554-.372.304-.28.509-.79.509-1.26 0-.805-.44-1.169-1.412-1.169h-2.55l-1.177 5.534h.714zm.13-.623l.41-1.905h1.745c.402 0 .6.053.744.212.099.106.16.28.16.463 0 .289-.107.615-.274.827-.22.274-.547.403-1.032.403zm19.694.486h2.998l.136-.623h-3.006l.38-1.768h3.127l.13-.623h-3.842l-1.176 5.534h3.97l.129-.623h-3.257zm22.82-1.389c.046-.213.062-.312.062-.426 0-.334-.16-.675-.41-.895-.312-.274-.714-.395-1.306-.395-.782 0-1.397.22-1.806.645-.312.319-.547.858-.547 1.245 0 .478.334.88.843 1.025l1.298.364c.614.175.857.387.857.76 0 .235-.136.515-.356.72-.312.289-.76.425-1.367.425-.858 0-1.252-.31-1.252-1.01 0-.098.007-.166.03-.31h-.66a1.648 1.648 0 00-.069.478c0 .918.684 1.457 1.83 1.457.804 0 1.465-.22 1.913-.637.394-.357.66-.904.66-1.336 0-.205-.06-.403-.182-.592-.167-.266-.387-.418-.744-.517l-1.306-.371c-.584-.167-.766-.32-.766-.653 0-.274.106-.501.334-.706.28-.25.645-.372 1.153-.372.426 0 .744.083.911.235.145.13.243.372.243.592 0 .069-.007.122-.03.274zm19.399 0c.045-.213.06-.312.06-.426 0-.334-.159-.675-.41-.895-.31-.274-.713-.395-1.305-.395-.782 0-1.396.22-1.806.645-.312.319-.547.858-.547 1.245 0 .478.334.88.843 1.025l1.298.364c.615.175.857.387.857.76 0 .235-.136.515-.356.72-.312.289-.76.425-1.367.425-.857 0-1.252-.31-1.252-1.01 0-.098.008-.166.03-.31h-.66a1.648 1.648 0 00-.068.478c0 .918.683 1.457 1.829 1.457.805 0 1.465-.22 1.913-.637.394-.357.66-.904.66-1.336 0-.205-.06-.403-.182-.592-.167-.266-.387-.418-.744-.517l-1.306-.371c-.584-.167-.766-.32-.766-.653 0-.274.106-.501.334-.706.28-.25.645-.372 1.154-.372.425 0 .743.083.91.235.145.13.243.372.243.592 0 .069-.007.122-.03.274z" style="-inkscape-font-specification:'Nimbus Sans L Italic'" aria-label="E X P R E S S" font-style="italic" font-weight="400" font-size="22.671" font-family="Nimbus Sans L" letter-spacing="18.256"/></g><path d="M22.053.908l-10.8 24.815c-.359.822-1.12 1.629-2.577 1.672a2.68 2.68 0 01-2.713-2.713 2.681 2.681 0 012.713-2.713h3.554l1.877-4.312-5.43-.007c-3.859 0-7.033 3.174-7.033 7.032s3.174 7.032 7.032 7.032c2.967 0 5.476-1.899 6.58-4.511l6.808-16.118-.66 11.327h-3.402l-1.928 4.43h5.071l-.288 4.944h5.062l.94-30.878zm11.201 2.958l-6.374 27.92h11.615l1.022-4.475H32.4l5.353-23.445zm12.616 0L42.748 17.54h-3.061l-1 4.377h3.062l-2.254 9.869h4.5l2.253-9.87h2.545c3.403 0 6.822-2.742 7.561-6.063l1.312-5.895c.74-3.322-1.46-6.064-4.862-6.064h-2.44l.006-.028zm14.421 0l-6.375 27.92h4.5l6.375-27.92zm5.669 0l-6.375 27.92h4.5l3.203-14.062 3.26 14.062h2.754l6.375-27.92h-4.5l-3.26 14.242-3.302-14.242zm14.989 0l-6.375 27.92h4.5l.01-.045h7.13l1.01-4.43h-7.129l1.224-5.36h4.893l1.011-4.43h-4.892l2.106-9.225h7.13l1.01-4.43H85.45zM49.364 8.27h2.466c.996 0 1.569.715 1.352 1.688l-1.311 5.895a2.179 2.179 0 01-2.104 1.687h-2.52l2.117-9.27z"/><path d="M101.626 3.866l-12.003 27.92h3.134l1.893-4.679h6.539l-.267 4.679h3.295l.775-27.92zm11.56 0l-6.374 27.92h3.105l6.375-27.92zm6.676 0l-6.375 27.92h3.105l2.343-10.261h3.147c.076 0 .152-.003.229-.006l.61 10.267h3.255l-.6-11.182c2.01-1.07 3.634-2.97 4.143-5.12l1.315-5.555c.786-3.319-1.366-6.04-4.777-6.04zm2.37 3.22h3.268c1.647 0 2.628 1.24 2.249 2.843l-1.315 5.555c-.38 1.603-1.948 2.844-3.595 2.844h-3.175zm-19.97 1.21l-.894 15.669h-5.446zM10.869 24.673a2.134 2.134 0 11-2.134-2.134l3.26-.007-1.303 2.993" fill="#489fb6"/></svg>