<svg width="80" height="80" viewBox="0 0 80 80" fill="none" xmlns="http://www.w3.org/2000/svg">
<rect width="80" height="80" rx="40" fill="#35495F"/>
<path d="M23.625 38.625V47.6254C23.625 49.7256 23.625 50.7752 24.0337 51.5773C24.3932 52.2829 24.9665 52.8572 25.6721 53.2166C26.4735 53.625 27.5231 53.625 29.6192 53.625H51.3808C53.4769 53.625 54.525 53.625 55.3264 53.2166C56.0319 52.8572 56.6072 52.2829 56.9666 51.5773C57.375 50.7759 57.375 49.7278 57.375 47.6318V38.625M23.625 38.625V34.875M23.625 38.625H57.375M57.375 38.625V34.875M23.625 34.875V33.3754C23.625 31.2752 23.625 30.2243 24.0337 29.4221C24.3932 28.7165 24.9665 28.1432 25.6721 27.7837C26.4743 27.375 27.5252 27.375 29.6254 27.375H51.3754C53.4756 27.375 54.5243 27.375 55.3264 27.7837C56.0319 28.1432 56.6072 28.7165 56.9666 29.4221C57.375 30.2235 57.375 31.2731 57.375 33.3692V34.875M23.625 34.875H57.375M31.125 46.125H38.625" stroke="white" stroke-width="2" stroke-linecap="round" stroke-linejoin="round"/>
</svg>
