<svg width="100" height="100" viewBox="0 0 100 100" fill="none" xmlns="http://www.w3.org/2000/svg">
<rect width="100" height="100" fill="#F8C957"/>
<g clip-path="url(#clip0_610_5685)">
<path d="M72.5 20H27.5C23.365 20 20 23.365 20 27.5V47.5H80V27.5C80 23.365 76.635 20 72.5 20ZM70 40H30V35H70V40ZM32.5 80C26.985 80 22.5 75.515 22.5 70C22.5 64.485 26.985 60 32.5 60V65C29.7425 65 27.5 67.2425 27.5 70C27.5 72.7575 29.7425 75 32.5 75C35.2575 75 37.5 72.7575 37.5 70V52.5H42.5V70C42.5 75.515 38.015 80 32.5 80ZM67.5 80C61.985 80 57.5 75.515 57.5 70V52.5H62.5V70C62.5 72.7575 64.7425 75 67.5 75C70.2575 75 72.5 72.7575 72.5 70C72.5 67.2425 70.2575 65 67.5 65V60C73.015 60 77.5 64.485 77.5 70C77.5 75.515 73.015 80 67.5 80ZM52.5 80H47.5V52.5H52.5V80Z" fill="#F6F6F8"/>
</g>
<defs>
<clipPath id="clip0_610_5685">
<rect width="60" height="60" fill="white" transform="translate(20 20)"/>
</clipPath>
</defs>
</svg>
