<svg width="80" height="80" fill="none" xmlns="http://www.w3.org/2000/svg"><rect width="80" height="80" rx="40" fill="#35495F"/><path d="M23.625 38.625v9c0 2.1 0 3.15.409 3.952a3.75 3.75 0 001.638 1.64c.802.408 1.851.408 3.947.408h21.762c2.096 0 3.144 0 3.945-.408a3.754 3.754 0 001.64-1.64c.409-.801.409-1.85.409-3.945v-9.007m-33.75 0v-3.75m0 3.75h33.75m0 0v-3.75m-33.75 0v-1.5c0-2.1 0-3.15.409-3.953a3.748 3.748 0 011.638-1.638c.802-.409 1.853-.409 3.953-.409h21.75c2.1 0 3.15 0 3.951.409.706.36 1.281.933 1.64 1.638.409.802.409 1.851.409 3.947v1.506m-33.75 0h33.75m-26.25 11.25h7.5" stroke="#fff" stroke-width="2" stroke-linecap="round" stroke-linejoin="round"/></svg>