<svg width="80" height="80" fill="none" xmlns="http://www.w3.org/2000/svg"><rect width="80" height="80" rx="40" fill="#35495F"/><g clip-path="url(#clip0_416_4323)" fill="#fff"><path d="M37.945 53.152c-1.754 1.621-4.18 1.984-6.333.948a5.77 5.77 0 01-1.948-1.511l-2.93 6.481a.548.548 0 00.085.6.55.55 0 00.579.175l2.133-.594a2.718 2.718 0 013.179 1.437l.963 1.994c.141.292.405.32.515.319a.547.547 0 00.506-.332l4.661-10.31a3.498 3.498 0 00-1.41.793zm16.321 5.918l-2.93-6.481a5.768 5.768 0 01-1.948 1.511c-2.153 1.036-4.579.673-6.333-.948a3.497 3.497 0 00-1.41-.793l4.66 10.31a.55.55 0 00.507.332.544.544 0 00.514-.319l.964-1.994a2.718 2.718 0 013.178-1.437l2.134.594a.547.547 0 00.579-.176.547.547 0 00.085-.599z"/><path d="M56.568 36.263c-2.433-1.666-3.189-4.975-1.719-7.532.884-1.538.424-3.057-.301-3.966-.725-.909-2.104-1.695-3.799-1.176-2.82.864-5.878-.609-6.961-3.352C43.137 18.587 41.663 18 40.5 18c-1.163 0-2.637.588-3.288 2.237-1.083 2.744-4.14 4.216-6.961 3.352-1.695-.519-3.074.267-3.799 1.176-.725.91-1.185 2.428-.301 3.966 1.47 2.557.715 5.866-1.72 7.532-1.462 1.002-1.707 2.57-1.448 3.703.258 1.134 1.16 2.44 2.912 2.708 2.916.446 5.032 3.099 4.817 6.04-.129 1.769.945 2.938 1.992 3.443 1.047.504 2.63.614 3.933-.59a5.68 5.68 0 013.863-1.5c1.39 0 2.78.5 3.863 1.5 1.302 1.205 2.886 1.094 3.933.59 1.047-.505 2.12-1.674 1.992-3.442-.215-2.942 1.901-5.595 4.817-6.04 1.753-.269 2.654-1.575 2.912-2.709.26-1.133.014-2.701-1.449-3.703zM40.5 47.525c-6.379 0-11.568-5.19-11.568-11.569 0-6.378 5.19-11.568 11.568-11.568 6.379 0 11.568 5.19 11.568 11.568 0 6.379-5.19 11.569-11.568 11.569z"/><path d="M40.5 26.547c-5.19 0-9.412 4.222-9.412 9.411 0 5.19 4.222 9.411 9.411 9.411 5.19 0 9.411-4.222 9.411-9.41 0-5.19-4.221-9.412-9.41-9.412zm4.822 8.499l-5.857 4.278a1.078 1.078 0 01-1.519-.251l-1.752-2.495a1.079 1.079 0 011.765-1.24l1.121 1.596 4.97-3.63a1.078 1.078 0 111.272 1.742z"/></g><defs><clipPath id="clip0_416_4323"><path fill="#fff" transform="translate(18 18)" d="M0 0h45v45H0z"/></clipPath></defs></svg>